<svg xmlns="http://www.w3.org/2000/svg" focusable="false" viewBox="0 0 32 32" width="25"><path d="M10,13.5c0.8,0,1.5,0.7,1.5,1.5s-0.7,1.5-1.5,1.5S8.5,15.8,8.5,15S9.2,13.5,10,13.5z M23,14h-8c-0.6,0-1,0.4-1,1s0.4,1,1,1h8c0.6,0,1-0.4,1-1S23.6,14,23,14z M23,20h-8c-0.6,0-1,0.4-1,1s0.4,1,1,1h8c0.6,0,1-0.4,1-1S23.6,20,23,20z M10,19.5c0.8,0,1.5,0.7,1.5,1.5s-0.7,1.5-1.5,1.5S8.5,21.8,8.5,21S9.2,19.5,10,19.5z M24,2h-2.2c-0.4-1.2-1.5-2-2.8-2h-6c-1.3,0-2.4,0.8-2.8,2H8C4.7,2,2,4.7,2,8v18c0,3.3,2.7,6,6,6h16c3.3,0,6-2.7,6-6V8C30,4.7,27.3,2,24,2z M13,2h6c0.6,0,1,0.4,1,1v2c0,0.6-0.4,1-1,1h-6c-0.6,0-1-0.4-1-1V3C12,2.4,12.4,2,13,2z M28,26c0,2.2-1.8,4-4,4H8c-2.2,0-4-1.8-4-4V8c0-2.2,1.8-4,4-4h2v1c0,1.7,1.3,3,3,3h6c1.7,0,3-1.3,3-3V4h2c2.2,0,4,1.8,4,4V26z" fill="#a266e4"></path></svg>