<svg xmlns="http://www.w3.org/2000/svg" class="DashedTile--large DashedTile" focusable="false"
     viewBox="0 0 120 120">
    <path d="M99,119H21c-11,0-20-9-20-20V21C1,10,10,1,21,1h78c11,0,20,9,20,20v78C119,110,110,119,99,119z"
          class="DashedTile-outer"></path>
    <path d="M71,59H61V49c0-0.5-0.4-1-1-1s-1,0.4-1,1V59H49c-0.5,0-1,0.4-1,1s0.4,1,1,1H59V71c0,0.5,0.4,1,1,1s1-0.4,1-1V61H71c0.5,0,1-0.4,1-1S71.6,59,71,59z"
          class="DashedTile-inner"></path>
    <style type="text/css">
        .DashedTile.DashedTile--large .DashedTile-outer{stroke-dasharray: 10.0605,5.0302; }
        .FlowPickerTile-dashedTile .DashedTile-outer {
        stroke: #9ca6af;
        transition: 200ms fill,200ms stroke;
        }
        .DashedTile .DashedTile-outer {
        fill: transparent;
        stroke: #6f7782;
        }
        .DashedTile.DashedTile--large {
        height: 120px;
        min-height: 120px;
        min-width: 120px;
        width: 120px;
        }
        .DashedTile .DashedTile-inner {
        fill: #6f7782;
        transition: 200ms fill,200ms stroke;
        }
    </style>
</svg>







